<svg width="16" height="17" viewBox="0 0 16 17" fill="none" xmlns="http://www.w3.org/2000/svg">
<path d="M3.64676 16.478V5.96632H0.377231V16.478H3.64676ZM1.99442 4.56007C3.04911 4.56007 3.89286 3.68117 3.89286 2.62648C3.89286 1.60695 3.04911 0.763199 1.99442 0.763199C0.974887 0.763199 0.131137 1.60695 0.131137 2.62648C0.131137 3.68117 0.974887 4.56007 1.99442 4.56007ZM15.846 16.478H15.8811V10.7124C15.8811 7.89992 15.2483 5.72023 11.9436 5.72023C10.3616 5.72023 9.30692 6.59914 8.84989 7.40773H8.81473V5.96632H5.68582V16.478H8.95536V11.2749C8.95536 9.90382 9.20145 8.60304 10.8889 8.60304C12.5764 8.60304 12.6116 10.1499 12.6116 11.3804V16.478H15.846Z" fill="#292F36"/>
</svg>
