<svg width="19" height="16" viewBox="0 0 19 16" fill="none" xmlns="http://www.w3.org/2000/svg">
<path d="M16.9559 4.07179C17.6591 3.54445 18.2919 2.91164 18.7841 2.17336C18.1513 2.45461 17.413 2.66554 16.6747 2.73586C17.4481 2.27882 18.0106 1.5757 18.2919 0.696793C17.5888 1.11867 16.7802 1.43507 15.9716 1.61086C15.2684 0.872574 14.3192 0.450699 13.2645 0.450699C11.2255 0.450699 9.57313 2.10304 9.57313 4.14211C9.57313 4.42336 9.60828 4.70461 9.6786 4.98586C6.62 4.81007 3.87782 3.33351 2.04969 1.11867C1.73328 1.64601 1.5575 2.27882 1.5575 2.98195C1.5575 4.24757 2.19032 5.37257 3.20985 6.04054C2.61219 6.00539 2.01453 5.86476 1.52235 5.58351V5.61867C1.52235 7.41164 2.78797 8.8882 4.47547 9.23976C4.19422 9.31007 3.84266 9.38039 3.52625 9.38039C3.28016 9.38039 3.06922 9.34523 2.82313 9.31007C3.28016 10.7866 4.65125 11.8413 6.26844 11.8765C5.00282 12.8609 3.42078 13.4585 1.69813 13.4585C1.38172 13.4585 1.10047 13.4234 0.819221 13.3882C2.43641 14.4429 4.37 15.0405 6.47938 15.0405C13.2645 15.0405 16.9559 9.4507 16.9559 4.56398C16.9559 4.3882 16.9559 4.24757 16.9559 4.07179Z" fill="#292F36"/>
</svg>
